<svg width="60" height="60" viewBox="0 0 60 60" fill="none" xmlns="http://www.w3.org/2000/svg">
<path d="M44.925 19.2469L40.6078 19.7016L42.4922 10.4953C42.6614 9.66576 43.0524 8.89765 43.6236 8.27278C44.1949 7.6479 44.9249 7.18966 45.7359 6.94686L54.4031 4.34061C56.1234 3.82499 57.8578 5.10936 57.8578 6.90936C57.8578 8.60155 56.175 9.7828 54.5859 9.20624L53.3812 8.93436L48.525 10.3734C48.0528 10.514 47.6256 10.7757 47.2859 11.1326C46.9463 11.4896 46.706 11.9292 46.5891 12.4078L44.925 19.2469ZM40.4484 38.7891L37.4437 51.5625L33.7922 50.2734L36.0422 38.7891H40.4484Z" fill="#65878D"/>
<path d="M38.325 47.8125H8.83124V51.7172H37.6594L38.325 47.8125Z" fill="#65878D"/>
<path d="M0.914087 22.5375L4.38752 39.4687C4.65471 40.7812 5.80784 41.7187 7.14377 41.7187H39.2625C39.4746 41.7189 39.6805 41.6471 39.8465 41.5151C40.0125 41.3832 40.1289 41.1988 40.1766 40.9922L45.811 16.6125C45.9563 15.9891 45.45 15.4125 44.8125 15.4687L3.41721 19.1719C3.02273 19.207 2.64012 19.3251 2.29449 19.5185C1.94886 19.7119 1.648 19.9761 1.41165 20.2939C1.1753 20.6117 1.00879 20.9759 0.923041 21.3625C0.837292 21.7492 0.834241 22.1496 0.914087 22.5375ZM7.45315 23.0484L9.45002 22.8703C9.64464 22.8528 9.84078 22.876 10.0259 22.9385C10.2111 23.001 10.3812 23.1013 10.5254 23.2332C10.6696 23.3651 10.7847 23.5255 10.8635 23.7044C10.9423 23.8832 10.9829 24.0765 10.9828 24.2719V26.5312C10.9828 27.3094 10.3547 27.9375 9.57659 27.9375H7.47659C6.81096 27.9375 6.2344 27.4687 6.09846 26.8125L5.78909 25.2937C5.73441 25.0353 5.73523 24.7681 5.79151 24.51C5.84779 24.2519 5.95823 24.0086 6.11554 23.7964C6.27285 23.5841 6.47343 23.4077 6.70402 23.2788C6.93461 23.1498 7.18995 23.0713 7.45315 23.0484ZM25.3641 31.6828H28.0266C28.8047 31.6828 29.4328 32.3109 29.4328 33.089V36.0937C29.4328 36.8719 28.8047 37.5 28.0266 37.5H25.3641C24.586 37.5 23.9578 36.8719 23.9578 36.0937V33.089C23.9578 32.3109 24.586 31.6828 25.3641 31.6828ZM28.0266 27.9328H25.3641C24.586 27.9328 23.9578 27.3047 23.9578 26.5266V22.8562C23.9578 22.1297 24.5156 21.5203 25.2375 21.4547L27.9 21.2156C28.0946 21.1981 28.2908 21.2213 28.4759 21.2838C28.6611 21.3463 28.8312 21.4467 28.9754 21.5785C29.1196 21.7104 29.2347 21.8708 29.3135 22.0497C29.3923 22.2285 29.4329 22.4218 29.4328 22.6172V26.5266C29.4328 27.3047 28.8047 27.9328 28.0266 27.9328ZM20.2078 33.089V36.0937C20.2078 36.8719 19.5797 37.5 18.8016 37.5H16.1391C15.361 37.5 14.7328 36.8719 14.7328 36.0937V33.089C14.7328 32.3109 15.361 31.6828 16.1391 31.6828H18.8016C19.5797 31.6828 20.2078 32.3109 20.2078 33.089ZM18.8016 27.9328H16.1391C15.361 27.9328 14.7328 27.3047 14.7328 26.5266V23.6812C14.7328 22.9547 15.2906 22.3453 16.0125 22.2797L18.675 22.0406C18.8696 22.0231 19.0658 22.0463 19.2509 22.1088C19.4361 22.1713 19.6062 22.2717 19.7504 22.4035C19.8946 22.5354 20.0097 22.6958 20.0885 22.8747C20.1673 23.0535 20.2079 23.2468 20.2078 23.4422V26.5266C20.2078 27.3047 19.5797 27.9328 18.8016 27.9328ZM40.2422 21.9609L39.1125 26.8406C39.041 27.1499 38.8667 27.4259 38.6181 27.6234C38.3695 27.8209 38.0613 27.9283 37.7438 27.9281H34.5891C33.811 27.9281 33.1828 27.3 33.1828 26.5219V22.0312C33.1828 21.3047 33.7406 20.6953 34.4625 20.6297L38.7422 20.2453C39.6985 20.1609 40.4578 21.0328 40.2422 21.9609ZM35.161 37.5H34.125C33.6094 37.5 33.1875 37.0781 33.1875 36.5625V33.089C33.1875 32.3109 33.8157 31.6828 34.5938 31.6828H36.2297C37.1344 31.6828 37.8047 32.5265 37.5985 33.4078L36.9891 36.0516C36.892 36.4636 36.6586 36.8307 36.3268 37.0936C35.9951 37.3565 35.5843 37.4997 35.161 37.5ZM7.38284 33.075C7.23284 32.3531 7.78596 31.6781 8.5219 31.6781H9.57659C10.3547 31.6781 10.9828 32.3062 10.9828 33.0844V36.3328C10.9828 36.4855 10.9528 36.6366 10.8943 36.7777C10.8359 36.9187 10.7503 37.0469 10.6423 37.1548C10.5344 37.2628 10.4062 37.3484 10.2652 37.4068C10.1242 37.4652 9.973 37.4953 9.82034 37.4953C8.92971 37.4953 8.16096 36.8672 7.98284 35.9953L7.38284 33.075Z" fill="#EDF0F5"/>
<path d="M35.4094 54.9984C38.2571 54.9984 40.5656 52.6899 40.5656 49.8422C40.5656 46.9945 38.2571 44.6859 35.4094 44.6859C32.5616 44.6859 30.2531 46.9945 30.2531 49.8422C30.2531 52.6899 32.5616 54.9984 35.4094 54.9984Z" fill="#2F2F2F"/>
<path d="M35.4094 52.2469C36.7375 52.2469 37.8141 51.1703 37.8141 49.8422C37.8141 48.5141 36.7375 47.4375 35.4094 47.4375C34.0813 47.4375 33.0047 48.5141 33.0047 49.8422C33.0047 51.1703 34.0813 52.2469 35.4094 52.2469Z" fill="#65878D"/>
<path d="M10.6406 54.9984C13.4883 54.9984 15.7969 52.6899 15.7969 49.8422C15.7969 46.9945 13.4883 44.6859 10.6406 44.6859C7.79291 44.6859 5.48438 46.9945 5.48438 49.8422C5.48438 52.6899 7.79291 54.9984 10.6406 54.9984Z" fill="#2F2F2F"/>
<path d="M10.6407 52.2469C11.9687 52.2469 13.0453 51.1703 13.0453 49.8422C13.0453 48.5141 11.9687 47.4375 10.6407 47.4375C9.31258 47.4375 8.23596 48.5141 8.23596 49.8422C8.23596 51.1703 9.31258 52.2469 10.6407 52.2469Z" fill="#65878D"/>
<path d="M55.589 11.0906C57.5074 11.0906 59.0625 9.5355 59.0625 7.61718C59.0625 5.69885 57.5074 4.14374 55.589 4.14374C53.6707 4.14374 52.1156 5.69885 52.1156 7.61718C52.1156 9.5355 53.6707 11.0906 55.589 11.0906Z" fill="#65878D"/>
</svg>
